

[img]http://img690.imageshack.us/img690/3561/ichicover.png[/img]


Anime at its most extreme.
 On the streets of Tokyo, a mobster clashes with a mysterious psychopath named Ichi, who kills his enemies in startlingly violent ways. Though Ichi is...  On the streets of Tokyo, a mobster clashes with a mysterious psychopath named Ichi, who kills his enemies in startlingly violent ways. Though Ichi is driven by a dark secret, he has no conscience about the deaths he is responsible for. ICHI THE KILLER - EPISODE ZERO is an animated prequel to Takaski Miike's cult hit film based on the popular manga.


[url=http://www.imgboot.com/image.php?u=fasamoo&i=bscap0002.jpg][img]http://imgboot.com/images/fasamoo/bscap0002.jpg[/img][/url]
[url=http://www.imgboot.com/image.php?u=fasamoo&i=bscap0006.jpg][img]http://imgboot.com/images/fasamoo/bscap0006.jpg[/img][/url]
[url=http://www.imgboot.com/image.php?u=fasamoo&i=bscap0008.jpg][img]http://imgboot.com/images/fasamoo/bscap0008.jpg[/img][/url]
[url=http://www.imgboot.com/image.php?u=fasamoo&i=bscap0009.jpg][img]http://imgboot.com/images/fasamoo/bscap0009.jpg[/img][/url]
[url=http://www.imgboot.com/image.php?u=fasamoo&i=ichithekillerepisode02002dvdripengdubgogo2010061703225880.jpg][img]http://imgboot.com/images/fasamoo/ichithekillerepisode02002dvdripengdubgogo2010061703225880.jpg[/img][/url]
[url=http://www.imgboot.com/image.php?u=fasamoo&i=ichithekillerepisode02002dvdripengdubgogoidx.jpg][img]http://imgboot.com/images/fasamoo/ichithekillerepisode02002dvdripengdubgogoidx.jpg[/img][/url]




General
Complete name                    : Ichi the Killer Episode 0 2002 DVDrip(Eng Dub) GoGoIchi the Killer Episode 0 2002 DVDrip(Eng Dub) GoGo.avi
IMDB Link                        :[url]http://www.imdb.com/title/tt0362808/[/url]
Format                           : AVI
Format/Info                      : Audio Video Interleave
File size                        : 400 MiB
Duration                         : 45mn 51s
Overall bit rate                 : 1 220 Kbps
Writing application              : VirtualDubMod 1.5.4.1 (build 2178/release)
Writing library                  : VirtualDubMod build 2178/release

Video
ID                               : 0
Format                           : MPEG-4 Visual
Format profile                   : Advanced Simple@L5
Format settings, BVOP            : Yes
Format settings, QPel            : No
Format settings, GMC             : No warppoints
Format settings, Matrix          : Custom
Codec ID                         : XVID
Codec ID/Hint                    : XviD
Duration                         : 45mn 51s
Bit rate                         : 1 091 Kbps
Width                            : 576 pixels
Height                           : 432 pixels
Display aspect ratio             : 4:3
Frame rate                       : 25.000 fps
Color space                      : YUV
Chroma subsampling               : 4:2:0
Bit depth                        : 8 bits
Scan type                        : Progressive
Bits/(Pixel*Frame)               : 0.175
Stream size                      : 358 MiB (89%)
Writing library                  : XviD 1.2.1 (UTC 2008-12-04)

Audio
ID                               : 1
Format                           : MPEG Audio
Format version                   : Version 1
Format profile                   : Layer 3
Mode                             : Joint stereo
Mode extension                   : MS Stereo
Codec ID                         : 55
Codec ID/Hint                    : MP3
Duration                         : 45mn 50s
Bit rate mode                    : Variable
Bit rate                         : 116 Kbps
Nominal bit rate                 : 128 Kbps
Channel(s)                       : 2 channels
Sampling rate                    : 48.0 KHz
Stream size                      : 38.1 MiB (10%)
Alignment                        : Aligned on interleaves
Interleave, duration             : 24 ms (0.60 video frame)
Interleave, preload duration     : 158 ms
Writing library                  : LAME3.98r
Encoding settings                : -m j -V 4 -q 2 -lowpass 17 --abr 128
Language                         : English(Dubbed)
Subtitles                        : None
Genre                            : Animation | Drama | Thriller  

[img]http://imgboot.com/images/fasamoo/pleaseseed.gif[/img]